<?xml version="1.0" encoding="UTF-8" standalone="no"?>
<svg
   xmlns:dc="http://purl.org/dc/elements/1.1/"
   xmlns:cc="http://creativecommons.org/ns#"
   xmlns:rdf="http://www.w3.org/1999/02/22-rdf-syntax-ns#"
   xmlns:svg="http://www.w3.org/2000/svg"
   xmlns="http://www.w3.org/2000/svg"
   xmlns:sodipodi="http://sodipodi.sourceforge.net/DTD/sodipodi-0.dtd"
   xmlns:inkscape="http://www.inkscape.org/namespaces/inkscape"
   version="1.1"
   viewBox="0 0 960 373.25436"
   stroke-miterlimit="10"
   id="svg55"
   sodipodi:docname="Gamespawn Logo and Subtitle Color.svg"
   width="960"
   height="373.25436"
   style="fill:none;stroke:none;stroke-linecap:square;stroke-miterlimit:10"
   inkscape:version="0.92.4 (5da689c313, 2019-01-14)">
  <metadata
     id="metadata61">
    <rdf:RDF>
      <cc:Work
         rdf:about="">
        <dc:format>image/svg+xml</dc:format>
        <dc:type
           rdf:resource="http://purl.org/dc/dcmitype/StillImage" />
        <dc:title></dc:title>
      </cc:Work>
    </rdf:RDF>
  </metadata>
  <defs
     id="defs59" />
  <sodipodi:namedview
     pagecolor="#ffffff"
     bordercolor="#666666"
     borderopacity="1"
     objecttolerance="10"
     gridtolerance="10"
     guidetolerance="10"
     inkscape:pageopacity="0"
     inkscape:pageshadow="2"
     inkscape:window-width="1920"
     inkscape:window-height="1017"
     id="namedview57"
     showgrid="false"
     inkscape:snap-bbox="true"
     inkscape:snap-bbox-midpoints="true"
     inkscape:zoom="1.0135197"
     inkscape:cx="426.64001"
     inkscape:cy="77.826019"
     inkscape:window-x="-8"
     inkscape:window-y="-8"
     inkscape:window-maximized="1"
     inkscape:current-layer="svg55" />
  <clipPath
     id="g63b0badb4f_0_94.0">
    <path
       d="M 0,0 H 960 V 540 H 0 Z"
       id="path2"
       inkscape:connector-curvature="0"
       style="clip-rule:nonzero" />
  </clipPath>
  <path
     style="fill:#ffffff;fill-rule:evenodd"
     inkscape:connector-curvature="0"
     id="path5"
     d="M 0,0 H 960 V 540 H 0 Z" />
  <path
     style="fill:#000000;fill-rule:evenodd;stroke-width:0.83139145"
     inkscape:connector-curvature="0"
     id="path7"
     d="M 0,0 H 960 V 373.25435 H 0 Z" />
  <path
     style="fill:#000000;fill-opacity:0;fill-rule:evenodd"
     inkscape:connector-curvature="0"
     id="path9"
     d="m 144.04199,318.0146 h 651.5276 v 125.5433 h -651.5276 z" />
  <path
     style="fill:#20beed;fill-rule:evenodd"
     inkscape:connector-curvature="0"
     id="path15"
     d="M 214.6929,250.27828 V 146.90282 l -29.89836,17.07973 v 16.48033 l 15.98514,-8.09065 v 23.07244 l -46.77109,-26.66821 v -5.99272 l 60.09215,-35.35693 V 110.9465 l -76.96486,45.54482 v 20.07608 l 63.34771,36.85544 v 29.06517 z" />
  <path
     style="fill:#20beed;fill-rule:evenodd"
     inkscape:connector-curvature="0"
     id="path17"
     d="M 222.68513,250.27828 V 146.90282 l 29.89769,17.07973 v 16.48033 l -15.68904,-8.09065 v 23.07244 l 46.47499,-26.66821 v -5.99272 L 223.27729,127.42681 V 110.9465 l 76.96419,45.54482 v 20.07608 l -63.3477,36.85544 v 29.06517 z" />
  <path
     style="fill:#20beed;fill-rule:evenodd"
     inkscape:connector-curvature="0"
     id="path19"
     d="m 228.01328,110.34709 28.41795,16.78003 h 23.97739 v -16.78003 z" />
  <path
     style="fill:#18a7d6;fill-rule:evenodd"
     inkscape:connector-curvature="0"
     id="path21"
     d="m 214.10073,110.9465 -64.53206,38.05425 14.50473,7.79027 50.02733,-29.3642 z m 0.59216,35.95632 -29.89836,17.07973 v 3.89547 l 12.13672,6.29242 3.84842,-1.79821 v 3.89547 l 13.91322,7.19153 z m 7.99224,0 v 41.05061 l 14.20865,7.49124 v -23.07244 l 15.68904,8.09065 v -16.48033 z m 0.59216,-35.95632 v 16.48032 l 60.09148,35.35692 v 5.99272 l -46.47499,26.66822 16.2812,8.68937 47.0665,-27.56665 v -20.07608 z" />
  <path
     style="fill:#28d1ff;fill-rule:evenodd"
     inkscape:connector-curvature="0"
     id="path23"
     d="m 228.01328,110.34709 28.41795,16.78003 h 23.97739 v -16.78003 z" />
  <path
     style="fill:#0b95be;fill-rule:evenodd"
     inkscape:connector-curvature="0"
     id="path25"
     d="m 228.01328,110.34709 28.41795,16.78003 h 23.97739 v -16.78003 z m -13.91255,0.59941 -44.10701,26.06814 14.50473,7.79094 29.60228,-17.37876 z m 0.59216,35.95632 -12.43281,7.19154 12.43281,6.59212 z m 7.99223,0 v 18.27855 l 14.20865,7.19086 15.68904,8.09065 v -16.48033 z m 0.59217,-35.95632 v 16.48032 l 60.09147,35.35692 v 5.99272 l -25.75387,14.68277 15.98514,8.68938 26.64144,-15.58121 V 156.49132 L 223.27728,110.9465 Z" />
  <path
     style="fill:#000000;fill-opacity:0;fill-rule:evenodd"
     inkscape:connector-curvature="0"
     id="path27"
     d="m 320.44116,209.75197 h 478.0056 v 82.84459 h -478.0056 z" />
  <path
     style="fill:#18a7d6;fill-rule:nonzero"
     inkscape:connector-curvature="0"
     id="path29"
     d="m 332.30018,255.39193 q -0.8125,0 -1.09375,-0.76563 l -7.42188,-20.64062 -0.0625,-0.35938 q 0,-0.25 0.1875,-0.4375 0.1875,-0.20312 0.45313,-0.20312 h 0.67187 q 0.28125,0 0.45313,0.17187 0.1875,0.15625 0.25,0.3125 l 7,19.57813 7.01562,-19.57813 q 0.0625,-0.15625 0.23438,-0.3125 0.17187,-0.17187 0.46875,-0.17187 h 0.67187 q 0.25,0 0.4375,0.20312 0.20313,0.1875 0.20313,0.4375 l -0.0625,0.35938 -7.42188,20.64062 q -0.29687,0.76563 -1.09375,0.76563 z m 13.58792,-20.0625 q -0.3125,0 -0.51562,-0.1875 -0.1875,-0.20313 -0.1875,-0.51563 v -1.21875 q 0,-0.3125 0.1875,-0.51562 0.20312,-0.21875 0.51562,-0.21875 h 1.21875 q 0.32813,0 0.53125,0.21875 0.20313,0.20312 0.20313,0.51562 v 1.21875 q 0,0.3125 -0.20313,0.51563 -0.20312,0.1875 -0.53125,0.1875 z m 0.35938,20.0625 q -0.32813,0 -0.51563,-0.1875 -0.1875,-0.20313 -0.1875,-0.51563 v -15.23437 q 0,-0.3125 0.1875,-0.5 0.1875,-0.20313 0.51563,-0.20313 h 0.54687 q 0.3125,0 0.5,0.20313 0.20313,0.1875 0.20313,0.5 v 15.23437 q 0,0.3125 -0.20313,0.51563 -0.1875,0.1875 -0.5,0.1875 z m 12.44851,0.3125 q -3.45312,0 -5.10937,-2.25 -1.64063,-2.25 -1.73438,-5.48438 l -0.0312,-0.89062 0.0312,-0.90625 q 0.0937,-3.23438 1.73438,-5.48438 1.65625,-2.25 5.10937,-2.25 3.48438,0 5.375,2.51563 v -7.57813 q 0,-0.32812 0.1875,-0.51562 0.20313,-0.1875 0.51563,-0.1875 h 0.54687 q 0.3125,0 0.5,0.1875 0.20313,0.1875 0.20313,0.51562 v 21.3125 q 0,0.3125 -0.20313,0.51563 -0.1875,0.1875 -0.5,0.1875 h -0.54687 q -0.3125,0 -0.51563,-0.1875 -0.1875,-0.20313 -0.1875,-0.51563 v -1.5 q -1.85937,2.51563 -5.375,2.51563 z m 0.1875,-1.84375 q 2.53125,0 3.8125,-1.67188 1.28125,-1.6875 1.375,-3.96875 0.0312,-0.3125 0.0312,-1.25 0,-0.92187 -0.0312,-1.23437 -0.0312,-1.39063 -0.60937,-2.60938 -0.57813,-1.23437 -1.73438,-2.03125 -1.14062,-0.8125 -2.84375,-0.8125 -2.59375,0 -3.79687,1.65625 -1.1875,1.64063 -1.28125,4.23438 l -0.0312,0.90625 q 0,2.96875 1.14062,4.875 1.15625,1.90625 3.96875,1.90625 z m 18.52878,1.84375 q -3.03125,0 -4.89062,-2 -1.85938,-2 -2.10938,-5.35938 l -0.0312,-1.26562 0.0312,-1.28125 q 0.25,-3.32813 2.09375,-5.34375 1.84375,-2.01563 4.90625,-2.01563 3.32813,0 5.20313,2.20313 1.875,2.20312 1.875,6.04687 v 0.48438 q 0,0.3125 -0.21875,0.51562 -0.20313,0.1875 -0.51563,0.1875 H 372.3654 v 0.3125 q 0.0625,1.5 0.6875,2.79688 0.625,1.29687 1.73437,2.09375 1.125,0.78125 2.625,0.78125 1.76563,0 2.85938,-0.6875 1.10937,-0.6875 1.59375,-1.39063 0.28125,-0.39062 0.42187,-0.48437 0.15625,-0.0937 0.53125,-0.0937 h 0.51563 q 0.28125,0 0.46875,0.15625 0.20312,0.15625 0.20312,0.42187 0,0.67188 -0.85937,1.60938 -0.84375,0.9375 -2.34375,1.625 -1.5,0.6875 -3.39063,0.6875 z m 5.125,-9.625 v -0.125 q 0,-2.46875 -1.39062,-4.0625 -1.39063,-1.60938 -3.73438,-1.60938 -2.32812,0 -3.6875,1.60938 -1.35937,1.59375 -1.35937,4.0625 v 0.125 z m 12.5033,9.625 q -3.32813,0 -5.17188,-2.03125 -1.82812,-2.03125 -1.92187,-5.25 l -0.0312,-1.34375 0.0312,-1.34375 q 0.0937,-3.23438 1.92187,-5.26563 1.84375,-2.03125 5.17188,-2.03125 3.32812,0 5.17187,2.03125 1.84375,2.03125 1.9375,5.26563 0.0312,0.3125 0.0312,1.34375 0,1.01562 -0.0312,1.34375 -0.0937,3.21875 -1.9375,5.25 -1.84375,2.03125 -5.17187,2.03125 z m 0,-1.84375 q 2.28125,0 3.67187,-1.45313 1.39063,-1.46875 1.48438,-4.15625 0.0312,-0.3125 0.0312,-1.17187 0,-0.875 -0.0312,-1.1875 -0.0937,-2.6875 -1.48438,-4.14063 -1.39062,-1.46875 -3.67187,-1.46875 -2.26563,0 -3.65625,1.46875 -1.39063,1.45313 -1.48438,4.14063 l -0.0312,1.1875 0.0312,1.17187 q 0.0937,2.6875 1.48438,4.15625 1.39062,1.45313 3.65625,1.45313 z m 27.87765,1.84375 q -4,0 -6.21875,-2.29688 -2.20312,-2.29687 -2.32812,-6.17187 -0.0312,-0.96875 -0.0312,-3.04688 0,-2.07812 0.0312,-3.03125 0.125,-3.875 2.32812,-6.17187 2.21875,-2.3125 6.21875,-2.3125 2.71875,0 4.57813,1.03125 1.85937,1.01562 2.76562,2.40625 0.90625,1.39062 0.98438,2.48437 v 0.0625 q 0,0.25 -0.20313,0.42188 -0.1875,0.15625 -0.46875,0.15625 h -0.71875 q -0.28125,0 -0.40625,-0.125 -0.125,-0.14063 -0.26562,-0.51563 -0.53125,-1.70312 -2.09375,-2.84375 -1.54688,-1.15625 -4.17188,-1.15625 -2.96875,0 -4.6875,1.64063 -1.71875,1.625 -1.84375,5.07812 -0.0312,0.95313 -0.0312,2.875 0,1.92188 0.0312,2.89063 0.125,3.45312 1.84375,5.09375 1.71875,1.625 4.6875,1.625 2.96875,0 4.79688,-1.6875 1.82812,-1.70313 1.82812,-5.03125 v -1.64063 h -5.5625 q -0.32812,0 -0.51562,-0.20312 -0.1875,-0.21875 -0.1875,-0.53125 v -0.45313 q 0,-0.3125 0.1875,-0.51562 0.1875,-0.21875 0.51562,-0.21875 h 6.84375 q 0.34375,0 0.53125,0.20312 0.20313,0.1875 0.20313,0.53125 v 2.82813 q 0,2.54687 -1.03125,4.5 -1.01563,1.95312 -2.96875,3.04687 -1.95313,1.07813 -4.64063,1.07813 z m 17.63867,0 q -1.54687,0 -2.85937,-0.625 -1.3125,-0.64063 -2.09375,-1.73438 -0.78125,-1.09375 -0.78125,-2.40625 0,-2.10937 1.70312,-3.45312 1.71875,-1.34375 4.64063,-1.71875 l 5.04687,-0.71875 v -1.10938 q 0,-1.76562 -1.07812,-2.70312 -1.0625,-0.95313 -3.26563,-0.95313 -1.64062,0 -2.6875,0.64063 -1.03125,0.64062 -1.3125,1.54687 -0.14062,0.375 -0.3125,0.53125 -0.17187,0.14063 -0.46875,0.14063 h -0.4375 q -0.29687,0 -0.5,-0.20313 -0.20312,-0.21875 -0.20312,-0.5 0,-0.70312 0.64062,-1.64062 0.64063,-0.95313 1.98438,-1.65625 1.34375,-0.70313 3.29687,-0.70313 3.42188,0 4.85938,1.625 1.4375,1.625 1.4375,3.96875 v 10.65625 q 0,0.3125 -0.20313,0.51563 -0.1875,0.1875 -0.5,0.1875 h -0.54687 q -0.3125,0 -0.51563,-0.1875 -0.1875,-0.20313 -0.1875,-0.51563 v -1.5 q -0.70312,1.04688 -2.0625,1.78125 -1.35937,0.73438 -3.59375,0.73438 z m 0.3125,-1.84375 q 2.34375,0 3.84375,-1.53125 1.5,-1.54688 1.5,-4.42188 v -1.09375 l -4.125,0.57813 q -2.625,0.35937 -3.96875,1.21875 -1.34375,0.85937 -1.34375,2.17187 0,1.46875 1.23438,2.28125 1.23437,0.79688 2.85937,0.79688 z m 13.05829,1.53125 q -0.32812,0 -0.51562,-0.1875 -0.1875,-0.20313 -0.1875,-0.51563 v -15.23437 q 0,-0.3125 0.1875,-0.5 0.1875,-0.20313 0.51562,-0.20313 h 0.54688 q 0.3125,0 0.5,0.20313 0.20312,0.1875 0.20312,0.5 v 1.125 q 0.82813,-1.0625 1.92188,-1.59375 1.10937,-0.54688 2.65625,-0.54688 3.57812,0 5.10937,3 0.78125,-1.375 2.20313,-2.1875 1.42187,-0.8125 3.25,-0.8125 2.65625,0 4.3125,1.8125 1.65625,1.79688 1.65625,5.125 v 9.3125 q 0,0.3125 -0.1875,0.51563 -0.1875,0.1875 -0.51563,0.1875 h -0.53125 q -0.32812,0 -0.51562,-0.1875 -0.1875,-0.20313 -0.1875,-0.51563 v -9 q 0,-2.90625 -1.20313,-4.15625 -1.20312,-1.25 -3.15625,-1.25 -1.73437,0 -3,1.26563 -1.25,1.26562 -1.25,4.14062 v 9 q 0,0.3125 -0.20312,0.51563 -0.1875,0.1875 -0.5,0.1875 h -0.54688 q -0.32812,0 -0.51562,-0.1875 -0.1875,-0.20313 -0.1875,-0.51563 v -9 q 0,-2.875 -1.25,-4.14062 -1.25,-1.26563 -3.10938,-1.26563 -1.71875,0 -2.98437,1.26563 -1.26563,1.26562 -1.26563,4.10937 v 9.03125 q 0,0.3125 -0.20312,0.51563 -0.1875,0.1875 -0.5,0.1875 z m 33.56482,0.3125 q -3.03125,0 -4.89062,-2 -1.85938,-2 -2.10938,-5.35938 l -0.0312,-1.26562 0.0312,-1.28125 q 0.25,-3.32813 2.09375,-5.34375 1.84375,-2.01563 4.90625,-2.01563 3.32813,0 5.20313,2.20313 1.875,2.20312 1.875,6.04687 v 0.48438 q 0,0.3125 -0.21875,0.51562 -0.20313,0.1875 -0.51563,0.1875 h -11.39062 v 0.3125 q 0.0625,1.5 0.6875,2.79688 0.625,1.29687 1.73437,2.09375 1.125,0.78125 2.625,0.78125 1.76563,0 2.85938,-0.6875 1.10937,-0.6875 1.59375,-1.39063 0.28125,-0.39062 0.42187,-0.48437 0.15625,-0.0937 0.53125,-0.0937 h 0.51563 q 0.28125,0 0.46875,0.15625 0.20312,0.15625 0.20312,0.42187 0,0.67188 -0.85937,1.60938 -0.84375,0.9375 -2.34375,1.625 -1.5,0.6875 -3.39063,0.6875 z m 5.125,-9.625 v -0.125 q 0,-2.46875 -1.39062,-4.0625 -1.39063,-1.60938 -3.73438,-1.60938 -2.32812,0 -3.6875,1.60938 -1.35937,1.59375 -1.35937,4.0625 v 0.125 z m 15.55615,9.3125 q -0.32812,0 -0.51562,-0.1875 -0.1875,-0.20313 -0.1875,-0.51563 v -20.95312 q 0,-0.32813 0.1875,-0.53125 0.1875,-0.21875 0.51562,-0.21875 h 6.8125 q 3.32813,0 5.26563,0.98437 1.9375,0.96875 2.75,2.85938 0.8125,1.89062 0.875,4.79687 0.0312,0.96875 0.0312,2.53125 0,1.60938 -0.0312,2.5625 -0.0625,3.07813 -0.875,4.95313 -0.8125,1.85937 -2.70313,2.79687 -1.89062,0.92188 -5.15625,0.92188 z m 6.8125,-1.92188 q 2.5625,0 4.03125,-0.6875 1.46875,-0.6875 2.125,-2.17187 0.65625,-1.48438 0.71875,-4.04688 0.0312,-0.96875 0.0312,-2.40625 0,-1.40625 -0.0312,-2.35937 -0.0625,-3.59375 -1.6875,-5.23438 -1.60937,-1.65625 -5.34375,-1.65625 h -5.34375 v 18.5625 z m 19.89844,2.23438 q -3.03125,0 -4.89062,-2 -1.85938,-2 -2.10938,-5.35938 l -0.0312,-1.26562 0.0312,-1.28125 q 0.25,-3.32813 2.09375,-5.34375 1.84375,-2.01563 4.90625,-2.01563 3.32813,0 5.20313,2.20313 1.875,2.20312 1.875,6.04687 v 0.48438 q 0,0.3125 -0.21875,0.51562 -0.20313,0.1875 -0.51563,0.1875 h -11.39062 v 0.3125 q 0.0625,1.5 0.6875,2.79688 0.625,1.29687 1.73437,2.09375 1.125,0.78125 2.625,0.78125 1.76563,0 2.85938,-0.6875 1.10937,-0.6875 1.59375,-1.39063 0.28125,-0.39062 0.42187,-0.48437 0.15625,-0.0937 0.53125,-0.0937 h 0.51563 q 0.28125,0 0.46875,0.15625 0.20312,0.15625 0.20312,0.42187 0,0.67188 -0.85937,1.60938 -0.84375,0.9375 -2.34375,1.625 -1.5,0.6875 -3.39063,0.6875 z m 5.125,-9.625 v -0.125 q 0,-2.46875 -1.39062,-4.0625 -1.39063,-1.60938 -3.73438,-1.60938 -2.32812,0 -3.6875,1.60938 -1.35937,1.59375 -1.35937,4.0625 v 0.125 z m 11.34992,9.3125 q -0.89063,0 -1.20313,-0.79688 l -5.89062,-14.84375 -0.0625,-0.35937 q 0,-0.25 0.1875,-0.4375 0.1875,-0.20313 0.45312,-0.20313 h 0.67188 q 0.28125,0 0.45312,0.17188 0.1875,0.15625 0.25,0.3125 l 5.40625,13.8125 5.40625,-13.8125 q 0.0625,-0.15625 0.23438,-0.3125 0.1875,-0.17188 0.46875,-0.17188 h 0.67187 q 0.25,0 0.4375,0.20313 0.20313,0.1875 0.20313,0.4375 l -0.0625,0.35937 -5.89063,14.84375 q -0.3125,0.79688 -1.21875,0.79688 z m 17.02911,0.3125 q -3.03125,0 -4.89062,-2 -1.85938,-2 -2.10938,-5.35938 l -0.0312,-1.26562 0.0312,-1.28125 q 0.25,-3.32813 2.09375,-5.34375 1.84375,-2.01563 4.90625,-2.01563 3.32813,0 5.20313,2.20313 1.875,2.20312 1.875,6.04687 v 0.48438 q 0,0.3125 -0.21875,0.51562 -0.20313,0.1875 -0.51563,0.1875 h -11.39062 v 0.3125 q 0.0625,1.5 0.6875,2.79688 0.625,1.29687 1.73437,2.09375 1.125,0.78125 2.625,0.78125 1.76563,0 2.85938,-0.6875 1.10937,-0.6875 1.59375,-1.39063 0.28125,-0.39062 0.42187,-0.48437 0.15625,-0.0937 0.53125,-0.0937 h 0.51563 q 0.28125,0 0.46875,0.15625 0.20312,0.15625 0.20312,0.42187 0,0.67188 -0.85937,1.60938 -0.84375,0.9375 -2.34375,1.625 -1.5,0.6875 -3.39063,0.6875 z m 5.125,-9.625 v -0.125 q 0,-2.46875 -1.39062,-4.0625 -1.39063,-1.60938 -3.73438,-1.60938 -2.32812,0 -3.6875,1.60938 -1.35937,1.59375 -1.35937,4.0625 v 0.125 z m 6.90955,9.3125 q -0.3125,0 -0.51563,-0.1875 -0.1875,-0.20313 -0.1875,-0.51563 v -21.3125 q 0,-0.32812 0.1875,-0.51562 0.20313,-0.1875 0.51563,-0.1875 h 0.54687 q 0.3125,0 0.5,0.1875 0.20313,0.1875 0.20313,0.51562 v 21.3125 q 0,0.3125 -0.20313,0.51563 -0.1875,0.1875 -0.5,0.1875 z m 12.79376,0.3125 q -3.32812,0 -5.17187,-2.03125 -1.82813,-2.03125 -1.92188,-5.25 l -0.0312,-1.34375 0.0312,-1.34375 q 0.0937,-3.23438 1.92188,-5.26563 1.84375,-2.03125 5.17187,-2.03125 3.32813,0 5.17188,2.03125 1.84375,2.03125 1.9375,5.26563 0.0312,0.3125 0.0312,1.34375 0,1.01562 -0.0312,1.34375 -0.0937,3.21875 -1.9375,5.25 -1.84375,2.03125 -5.17188,2.03125 z m 0,-1.84375 q 2.28125,0 3.67188,-1.45313 1.39062,-1.46875 1.48437,-4.15625 0.0312,-0.3125 0.0312,-1.17187 0,-0.875 -0.0312,-1.1875 -0.0937,-2.6875 -1.48437,-4.14063 -1.39063,-1.46875 -3.67188,-1.46875 -2.26562,0 -3.65625,1.46875 -1.39062,1.45313 -1.48437,4.14063 l -0.0312,1.1875 0.0312,1.17187 q 0.0937,2.6875 1.48437,4.15625 1.39063,1.45313 3.65625,1.45313 z m 12.26227,7.60937 q -0.3125,0 -0.51563,-0.1875 -0.1875,-0.1875 -0.1875,-0.51562 v -21.3125 q 0,-0.3125 0.1875,-0.5 0.20313,-0.20313 0.51563,-0.20313 h 0.54687 q 0.3125,0 0.5,0.20313 0.20313,0.1875 0.20313,0.5 v 1.5 q 1.85937,-2.51563 5.375,-2.51563 3.45312,0 5.09375,2.1875 1.65625,2.1875 1.75,5.39063 0.0312,0.3125 0.0312,1.0625 0,0.73437 -0.0312,1.04687 -0.0937,3.20313 -1.75,5.39063 -1.64063,2.1875 -5.09375,2.1875 -3.48438,0 -5.375,-2.51563 v 7.57813 q 0,0.32812 -0.20313,0.51562 -0.1875,0.1875 -0.5,0.1875 z m 6.4375,-7.60937 q 2.59375,0 3.78125,-1.64063 1.20312,-1.65625 1.29687,-4.25 0.0312,-0.32812 0.0312,-0.89062 0,-2.98438 -1.15625,-4.89063 -1.14062,-1.90625 -3.95312,-1.90625 -2.53125,0 -3.8125,1.6875 -1.28125,1.67188 -1.375,3.95313 l -0.0312,1.25 0.0312,1.25 q 0.0312,1.375 0.60937,2.60937 0.57813,1.21875 1.71875,2.03125 1.15625,0.79688 2.85938,0.79688 z m 12.12329,1.53125 q -0.32813,0 -0.51563,-0.1875 -0.1875,-0.20313 -0.1875,-0.51563 v -15.23437 q 0,-0.3125 0.1875,-0.5 0.1875,-0.20313 0.51563,-0.20313 h 0.54687 q 0.3125,0 0.5,0.20313 0.20313,0.1875 0.20313,0.5 v 1.125 q 0.82812,-1.0625 1.92187,-1.59375 1.10938,-0.54688 2.65625,-0.54688 3.57813,0 5.10938,3 0.78125,-1.375 2.20312,-2.1875 1.42188,-0.8125 3.25,-0.8125 2.65625,0 4.3125,1.8125 1.65625,1.79688 1.65625,5.125 v 9.3125 q 0,0.3125 -0.1875,0.51563 -0.1875,0.1875 -0.51562,0.1875 h -0.53125 q -0.32813,0 -0.51563,-0.1875 -0.1875,-0.20313 -0.1875,-0.51563 v -9 q 0,-2.90625 -1.20312,-4.15625 -1.20313,-1.25 -3.15625,-1.25 -1.73438,0 -3,1.26563 -1.25,1.26562 -1.25,4.14062 v 9 q 0,0.3125 -0.20313,0.51563 -0.1875,0.1875 -0.5,0.1875 h -0.54687 q -0.32813,0 -0.51563,-0.1875 -0.1875,-0.20313 -0.1875,-0.51563 v -9 q 0,-2.875 -1.25,-4.14062 -1.25,-1.26563 -3.10937,-1.26563 -1.71875,0 -2.98438,1.26563 -1.26562,1.26562 -1.26562,4.10937 v 9.03125 q 0,0.3125 -0.20313,0.51563 -0.1875,0.1875 -0.5,0.1875 z m 33.56482,0.3125 q -3.03125,0 -4.89063,-2 -1.85937,-2 -2.10937,-5.35938 l -0.0312,-1.26562 0.0312,-1.28125 q 0.25,-3.32813 2.09375,-5.34375 1.84375,-2.01563 4.90625,-2.01563 3.32812,0 5.20312,2.20313 1.875,2.20312 1.875,6.04687 v 0.48438 q 0,0.3125 -0.21875,0.51562 -0.20312,0.1875 -0.51562,0.1875 h -11.39063 v 0.3125 q 0.0625,1.5 0.6875,2.79688 0.625,1.29687 1.73438,2.09375 1.125,0.78125 2.625,0.78125 1.76562,0 2.85937,-0.6875 1.10938,-0.6875 1.59375,-1.39063 0.28125,-0.39062 0.42188,-0.48437 0.15625,-0.0937 0.53125,-0.0937 h 0.51562 q 0.28125,0 0.46875,0.15625 0.20313,0.15625 0.20313,0.42187 0,0.67188 -0.85938,1.60938 -0.84375,0.9375 -2.34375,1.625 -1.5,0.6875 -3.39062,0.6875 z m 5.125,-9.625 v -0.125 q 0,-2.46875 -1.39063,-4.0625 -1.39062,-1.60938 -3.73437,-1.60938 -2.32813,0 -3.6875,1.60938 -1.35938,1.59375 -1.35938,4.0625 v 0.125 z m 6.87829,9.3125 q -0.32812,0 -0.51562,-0.1875 -0.1875,-0.20313 -0.1875,-0.51563 v -15.23437 q 0,-0.3125 0.1875,-0.5 0.1875,-0.20313 0.51562,-0.20313 h 0.54688 q 0.3125,0 0.5,0.20313 0.20312,0.1875 0.20312,0.5 v 1.5 q 0.95313,-1.25 2.1875,-1.875 1.23438,-0.64063 3.1875,-0.64063 3.14063,0 4.82813,2 1.70312,2 1.70312,5.15625 v 9.09375 q 0,0.3125 -0.20312,0.51563 -0.1875,0.1875 -0.5,0.1875 h -0.54688 q -0.32812,0 -0.51562,-0.1875 -0.1875,-0.20313 -0.1875,-0.51563 v -8.92187 q 0,-2.59375 -1.26563,-4.03125 -1.26562,-1.45313 -3.64062,-1.45313 -2.29688,0 -3.67188,1.46875 -1.375,1.45313 -1.375,4.01563 v 8.92187 q 0,0.3125 -0.20312,0.51563 -0.1875,0.1875 -0.5,0.1875 z m 23.51465,0 q -2.35937,0 -3.35937,-1.42188 -0.98438,-1.42187 -0.98438,-3.92187 v -9.4375 h -2.5 q -0.3125,0 -0.51562,-0.1875 -0.1875,-0.20313 -0.1875,-0.51563 v -0.45312 q 0,-0.3125 0.1875,-0.5 0.20312,-0.20313 0.51562,-0.20313 h 2.5 v -5.375 q 0,-0.32812 0.1875,-0.51562 0.1875,-0.1875 0.51563,-0.1875 h 0.54687 q 0.3125,0 0.5,0.1875 0.20313,0.1875 0.20313,0.51562 v 5.375 h 3.96875 q 0.3125,0 0.5,0.20313 0.20312,0.1875 0.20312,0.5 v 0.45312 q 0,0.3125 -0.20312,0.51563 -0.1875,0.1875 -0.5,0.1875 h -3.96875 v 9.3125 q 0,1.78125 0.57812,2.70312 0.59375,0.90625 1.98438,0.90625 h 1.71875 q 0.32812,0 0.51562,0.20313 0.1875,0.1875 0.1875,0.5 v 0.45312 q 0,0.3125 -0.1875,0.51563 -0.1875,0.1875 -0.51562,0.1875 z m 22.15027,0.3125 q -4.15625,0 -6.25,-2.34375 -2.07812,-2.35938 -2.23437,-6.32813 -0.0312,-0.85937 -0.0312,-2.8125 0,-1.98437 0.0312,-2.875 0.15625,-3.96875 2.23437,-6.3125 2.09375,-2.35937 6.25,-2.35937 2.84375,0 4.73438,1.04687 1.89062,1.03125 2.79687,2.625 0.92188,1.57813 1.01563,3.23438 v 0.0625 q 0,0.26562 -0.20313,0.42187 -0.1875,0.15625 -0.46875,0.15625 h -0.64062 q -0.57813,0 -0.70313,-0.67187 -0.60937,-2.71875 -2.21875,-3.82813 -1.59375,-1.125 -4.3125,-1.125 -3.01562,0 -4.6875,1.70313 -1.65625,1.6875 -1.78125,5.20312 -0.0312,0.85938 -0.0312,2.65625 0,1.79688 0.0312,2.71875 0.125,3.53125 1.78125,5.23438 1.67188,1.6875 4.6875,1.6875 2.71875,0 4.3125,-1.125 1.60938,-1.125 2.21875,-3.84375 0.125,-0.67188 0.70313,-0.67188 h 0.64062 q 0.28125,0 0.48438,0.1875 0.21875,0.17188 0.1875,0.45313 -0.0937,1.67187 -1.01563,3.25 -0.90625,1.57812 -2.79687,2.625 -1.89063,1.03125 -4.73438,1.03125 z m 13.56647,-0.3125 q -0.3125,0 -0.51563,-0.1875 -0.1875,-0.20313 -0.1875,-0.51563 v -21.3125 q 0,-0.32812 0.1875,-0.51562 0.20313,-0.1875 0.51563,-0.1875 h 0.54687 q 0.3125,0 0.5,0.1875 0.20313,0.1875 0.20313,0.51562 v 21.3125 q 0,0.3125 -0.20313,0.51563 -0.1875,0.1875 -0.5,0.1875 z m 12.70001,0.3125 q -3.125,0 -4.76562,-1.96875 -1.625,-1.98438 -1.625,-5.1875 v -9.09375 q 0,-0.3125 0.1875,-0.5 0.1875,-0.20313 0.51562,-0.20313 h 0.54688 q 0.3125,0 0.5,0.20313 0.20312,0.1875 0.20312,0.5 v 8.92187 q 0,5.48438 4.76563,5.48438 2.29687,0 3.65625,-1.45313 1.35937,-1.46875 1.35937,-4.03125 v -8.92187 q 0,-0.3125 0.1875,-0.5 0.20313,-0.20313 0.51563,-0.20313 h 0.54687 q 0.32813,0 0.51563,0.20313 0.1875,0.1875 0.1875,0.5 v 15.23437 q 0,0.3125 -0.1875,0.51563 -0.1875,0.1875 -0.51563,0.1875 h -0.54687 q -0.3125,0 -0.51563,-0.1875 -0.1875,-0.20313 -0.1875,-0.51563 v -1.5 q -0.95312,1.25 -2.1875,1.89063 -1.23437,0.625 -3.15625,0.625 z m 19.84503,0 q -3.51562,0 -5.375,-2.51563 v 1.5 q 0,0.3125 -0.20312,0.51563 -0.1875,0.1875 -0.5,0.1875 h -0.54688 q -0.3125,0 -0.51562,-0.1875 -0.1875,-0.20313 -0.1875,-0.51563 v -21.3125 q 0,-0.32812 0.1875,-0.51562 0.20312,-0.1875 0.51562,-0.1875 h 0.54688 q 0.3125,0 0.5,0.1875 0.20312,0.1875 0.20312,0.51562 v 7.57813 q 1.89063,-2.51563 5.375,-2.51563 3.45313,0 5.09375,2.25 1.65625,2.25 1.75,5.48438 0.0312,0.32812 0.0312,0.90625 0,0.5625 -0.0312,0.89062 -0.0937,3.23438 -1.75,5.48438 -1.64062,2.25 -5.09375,2.25 z m -0.1875,-1.84375 q 2.59375,0 3.78125,-1.64063 1.20313,-1.65625 1.29688,-4.25 0.0312,-0.32812 0.0312,-0.89062 0,-2.98438 -1.15625,-4.89063 -1.14063,-1.90625 -3.95313,-1.90625 -1.70312,0 -2.85937,0.8125 -1.14063,0.79688 -1.71875,2.03125 -0.57813,1.21875 -0.60938,2.60938 l -0.0312,1.23437 0.0312,1.25 q 0.0937,2.28125 1.375,3.96875 1.28125,1.67188 3.8125,1.67188 z" />
  <path
     style="fill:#ffffff;fill-rule:evenodd"
     inkscape:connector-curvature="0"
     id="path31"
     d="m 345.38894,124.03259 -12.4621,10.68063 -10.13195,57.23871 8.76364,10.68061 h 19.03439 l 12.46045,-10.68061 6.4368,-36.35674 h -21.63721 l -2.53342,14.58402 h 6.16248 l -3.14981,17.66441 h -9.38004 l 8.69586,-49.0221 h 9.31229 l -2.19135,12.73478 h 15.54252 l 2.80609,-16.84308 -8.69422,-10.68063 z" />
  <path
     style="fill:#ffffff;fill-rule:evenodd"
     inkscape:connector-curvature="0"
     id="path33"
     d="m 403.10693,138.95869 -2.94324,16.56876 h -9.38003 l 2.94323,-16.56876 z m -11.50195,-15.20042 -12.52985,10.68061 -5.54605,31.69977 h 0.0677 l -6.43515,36.35674 h 15.47308 l 5.54608,-31.4271 h 9.31226 l -5.34113,31.4271 h 15.33759 l 10.33853,-59.36063 1.50549,-8.69588 -8.69421,-10.68061 z" />
  <path
     style="fill:#ffffff;fill-rule:evenodd"
     inkscape:connector-curvature="0"
     id="path35"
     d="m 474.92965,123.75827 -25.46954,50.87133 -6.64173,-50.80357 h -15.54251 l -7.32586,42.38203 h 0.0694 l -6.4368,36.42448 h 15.47477 l 5.13455,-29.85218 2.73834,29.71502 H 452.405 l 13.89819,-29.78277 -5.33947,29.78277 h 15.47308 l 6.3674,-36.35673 h 0.13715 l 7.60022,-42.38038 z" />
  <path
     style="fill:#ffffff;fill-rule:evenodd"
     inkscape:connector-curvature="0"
     id="path37"
     d="m 506.83598,124.23752 -12.32327,10.40629 -9.99646,57.51304 8.62646,10.4757 29.715,-0.13716 1.77984,-10.13361 0.13715,-0.0678 0.89075,-5.06681 h -24.85477 l 2.73996,-15.95234 h 14.37744 l 2.73834,-15.33759 h -14.44683 l 2.87713,-16.36383 h 24.78534 l 0.8891,-5.06515 -0.0677,-0.0694 1.77985,-10.13361 z" />
  <path
     style="fill:#ffffff;fill-rule:evenodd"
     inkscape:connector-curvature="0"
     id="path39"
     d="m 553.18914,123.96319 -12.46039,10.68062 -6.16247,36.97314 h 21.56781 v -0.13716 h 3.21753 l -2.87549,16.36383 h -9.38001 l 1.43775,-8.01005 h -15.54254 l -2.05414,12.11836 8.76361,10.68062 h 19.03442 l 12.4621,-10.68062 6.16083,-36.97315 -24.7854,0.0694 v 0 l 2.87548,-16.29608 h 9.38007 l -1.43774,8.01171 h 15.54248 l 2.05413,-12.12001 -8.69586,-10.68062 z" />
  <path
     style="fill:#ffffff;fill-rule:evenodd"
     inkscape:connector-curvature="0"
     id="path41"
     d="m 611.11368,139.02644 -2.87549,16.56876 h -9.38 l 2.94323,-16.56876 z m -22.11481,-15.20041 -13.76269,78.80652 h 15.40533 l 5.54608,-31.49484 13.83045,-0.13716 12.80414,-10.54346 v -0.54866 l 0.20495,-0.0678 2.80774,-16.63817 1.50549,-8.69421 -8.69586,-10.68227 z" />
  <path
     style="fill:#ffffff;fill-rule:evenodd"
     inkscape:connector-curvature="0"
     id="path43"
     d="m 656.78108,138.95869 -2.94324,16.56876 h -9.38 l 2.94323,-16.56876 z m -11.57135,-15.20042 -12.46045,10.68061 -5.61383,31.69977 h 0.13721 l -6.43683,36.35674 h 15.40533 l 5.54608,-31.4271 h 9.38001 l -5.40888,31.4271 h 15.40534 l 10.27081,-59.36063 1.57489,-8.69588 -8.76526,-10.68061 z" />
  <path
     style="fill:#ffffff;fill-rule:evenodd"
     inkscape:connector-curvature="0"
     id="path45"
     d="m 705.59991,124.23752 -0.0694,0.0678 h -0.3421 l -10.75,35.33048 0.0694,0.0678 h -0.0694 v -0.0678 l 1.23279,-35.39823 v 0 l -15.20044,0.0678 -0.547,78.12237 h 13.6933 l 11.22925,-32.38559 -0.13715,32.38559 h 13.62549 l 27.11389,-78.12237 -15.13269,-0.0678 -11.15985,35.39823 0.0677,0.0678 h -0.0677 v -0.0678 l 1.57489,-35.33048 h -0.34204 v -0.0678 z" />
  <path
     style="fill:#ffffff;fill-rule:evenodd"
     inkscape:connector-curvature="0"
     id="path47"
     d="m 751.19952,123.82603 -7.32587,42.38203 h 0.0678 l -6.43518,36.42449 h 15.40534 l 5.20233,-29.85219 4.17773,29.85219 h 15.54083 l 10.27082,-59.43004 3.42413,-19.37648 h -15.40533 l -5.40894,30.53634 -3.97113,-30.53634 z" />
</svg>
