<?xml version="1.0" encoding="UTF-8"?><svg width="1918" height="1536" version="1.1" viewBox="-10 0 1918 1536" xmlns="http://www.w3.org/2000/svg"><path d="m1467 668c-14.148 0-28.724 0.78236-43.772 2.2871l-52.228 5.2227v550.49h98c91.867 0 173.38 11.416 244.94 33.436l75.057 23.094v-542.48l-34.775-15.195c-87.254-38.128-183.62-56.854-287.22-56.854z" color="#000000" fill="#ff0"/><path d="m1465 117c-14.148 0-28.296 0.78787-42.404 2.3555l-51.596 5.7324v543.38l98.418-2.4609c82.417 0.0438 163.34 13.003 243.63 39.143l75.955 24.73v-534.58l-31.875-16.082c-83.693-42.223-181.81-62.217-292.12-62.217z" color="#000000" fill="#008000"/><g fill="#00f"><path d="m1371 672.12-65.344 8.3418c-94.314 12.04-193.75 43.088-298.66 91.559v547.35l21.34-8.4434c87.961-34.805 185.51-60.087 292.91-75.521l49.75-7.1504z"/><path d="m779 1152v119l-142 57v-119z"/><path d="m779 964v120l-142 55v-118z"/><path d="m582 1160v99l-125 50v-98z"/><path d="m582 973v99l-125 50v-99z"/><path d="m396 1164v74l-100 40v-72z"/><path d="m396 977v72l-100 41v-72z"/><path d="m225 1128v62l-74 30v-63z"/><path d="m225 933v62l-74 30v-64z"/><path d="m51 1086v52l-55 25v-51z"/><path d="m51 892v51l-55 25v-52z"/></g><g fill="#f00"><path d="m1371 119.91-68.852 13.113c-95.5 18.19-193.89 48.168-295.15 89.34v548.52l24.305-11.217c90.148-41.607 186.64-70.041 290.14-85.281l49.551-7.2949z"/><path d="m779 570v119l-142 56v-118z"/><path d="m779 386v118l-142 57v-119z"/><path d="m582 586v98l-125 51v-99z"/><path d="m582 393v99l-125 51v-99z"/><path d="m396 591v72l-100 40v-72z"/><path d="m396 398v73l-100 39v-71z"/><path d="m225 547v62l-74 29v-64z"/><path d="m225 354v63l-74 29v-63z"/><path d="m51 504v52l-55 25v-52z"/><path d="m51 312v53l-55 25v-52z"/></g><g><path d="m988 1264v180c-69.333 26.667-128.33 52.333-177 77v-181z"/><path d="m988 1075v168l-177 77v-170z"/><path d="m988 882v172l-177 76v-173z"/><path d="m988 694v167l-177 75v-168z"/><path d="m988 504v169l-177 75v-169z"/><path d="m988 316v167l-177 75v-168z"/><path d="m988 103v193l-177 74v-180c61.333-35.333 120.33-64.333 177-87z"/><path d="m787 1328v141l-166 67v-141z"/><path d="m787 753v141l-166 67v-141z"/><path d="m787 174v141l-166 68v-141z"/><path d="m590 1346v108l-149 60v-107z"/><path d="m590 772v108l-149 59v-108z"/><path d="m590 192v108l-149 60v-107z"/><path d="m402 1351v82l-119 48v-82z"/><path d="m402 776v82l-119 47v-81z"/><path d="m402 197v82l-119 47v-81z"/><path d="m230 1315v68l-92 38v-68z"/><path d="m230 733v68l-92 36v-68z"/><path d="m230 154v69l-92 35v-68z"/><path d="m58 1273v60l-68 28v-57z"/><path d="m58 693v59l-68 28v-57z"/><path d="m58 121v59l-68 28v-58z"/><path d="m1464 0c-149.33 0-301.67 31.667-457 95v190c106-44.667 208-76.333 306-95v427c-108.67 16-210.67 46-306 90v129c110-53.333 212-86 306-98v440c-111.33 16-213.33 42.333-306 79v180c174.67-58.666 332.67-88 474-88 170.67 0 313 37.334 427 112v-1351c-135.33-73.333-283.33-110-444-110zm1 175c103.33 0 192 18.667 266 56v419c-86-28-173.33-42-262-42l-40 1v-432c12-1.3333 24-2 36-2zm2 551c96.667 0 184.67 17.333 264 52v426c-78-24-165.33-36-262-36h-40v-440c13.333-1.3333 26-2 38-2z"/></g></svg> 
